<?xml version="1.0" encoding="utf-8"?>
<svg width="800px" height="800px" viewBox="-3.79 -3.79 83.38 83.38" fill="#000000" stroke="#000000" stroke-width="7.5804" transform="matrix(-1, 0, 0, 1, 0, 0)rotate(0)" xmlns="http://www.w3.org/2000/svg">
  <g id="SVGRepo_bgCarrier" stroke-width="0"/>
  <g id="SVGRepo_iconCarrier" transform="matrix(1, 0, 0, 1, 23.698975, -0.002192)">
    <g id="Group_65" data-name="Group 65" transform="translate(-831.568 -384.448)">
      <path id="Path_57" data-name="Path 57" d="M 828.546 460.252 C 827.391 460.253 826.669 459.003 827.246 458.003 C 827.311 457.889 827.392 457.784 827.485 457.691 L 861.042 424.131 C 862.021 423.145 862.021 421.554 861.042 420.567 L 827.485 387.009 C 826.668 386.193 827.042 384.798 828.158 384.5 C 828.676 384.361 829.228 384.509 829.607 384.888 L 863.163 418.446 C 865.313 420.604 865.313 424.095 863.163 426.253 L 829.606 459.813 C 829.325 460.094 828.943 460.252 828.546 460.252 Z" fill="#0c2c67" style="stroke: rgb(235, 231, 231);"/>
    </g>
  </g>
</svg>