<?xml version="1.0" encoding="utf-8"?>
<svg width="256px" height="256px" viewBox="-3.79 -3.79 83.38 83.38" fill="#000000" stroke="#000000" stroke-width="7.5804" transform="matrix(1, 0, 0, 1, 0, 0)" xmlns="http://www.w3.org/2000/svg">
  <g id="SVGRepo_bgCarrier" stroke-width="0"/>
  <g id="SVGRepo_iconCarrier" transform="matrix(1, 0, 0, 1, 20.915661, -0.141322)">
    <g id="Group_65" data-name="Group 65" transform="translate(-831.568 -384.448)">
      <path id="Path_57" data-name="Path 57" d="M833.068,460.252a1.5,1.5,0,0,1-1.061-2.561l33.557-33.56a2.53,2.53,0,0,0,0-3.564l-33.557-33.558a1.5,1.5,0,0,1,2.122-2.121l33.556,33.558a5.53,5.53,0,0,1,0,7.807l-33.557,33.56A1.5,1.5,0,0,1,833.068,460.252Z" fill="#0c2c67" style="stroke: rgb(232, 232, 232);"/>
    </g>
  </g>
</svg>